<?xml version="1.0" standalone="no"?><!DOCTYPE svg PUBLIC "-//W3C//DTD SVG 1.1//EN" "http://www.w3.org/Graphics/SVG/1.1/DTD/svg11.dtd"><svg t="1595663930675" class="icon" viewBox="0 0 1024 1024" version="1.1" xmlns="http://www.w3.org/2000/svg" p-id="2050" width="16" height="16" xmlns:xlink="http://www.w3.org/1999/xlink"><defs><style type="text/css"></style></defs><path d="M783.29130401 629l-0.82173868 0.82173955a27.74347823 27.74347823 0 0 0-7.31739111 24.14347823l36.15652177 219.83478222c9.19565244 55.95652177-48.40434756 99.62608711-98.13913066 72l-189-104.16521777a22.61739112 22.61739112 0 0 0-22.30434755 0l-189 104.12608711c-49.85217422 27.70434756-107.92173955-16.16086934-98.217392-72l36.07826133-219.20869512c1.48695645-10.05652178-1.33043467-19.05652178-7.90434756-25.39565245L89.70434756 473.18260888c-38.97391289-39.6-17.60869599-108.23478223 37.48695645-117l211.61739198-32.47826132a24.57391289 24.57391289 0 0 0 18.39130401-14.86956534l93.91304355-199.95652177a66.52173955 66.52173955 0 0 1 121.18695645 0l94.14782578 200.30869599c3.32608711 7.35652178 10.95652178 13.18695644 18 14.47826133l212.24347823 32.47826046c55.13478222 8.21739112 76.61739112 77.08695644 37.8 116.53043466l-151.2 156.32608711z m106.39565244-200.03478223c3.6-3.67826045 1.56521777-10.33043467-2.34782578-10.91739199l-213.3-32.63478222a89.37391289 89.37391289 0 0 1-64.408696-49.96956534l-93.991304-199.95652177c-1.95652177-4.06956533-5.90869599-4.06956533-7.82608711-1e-8L413.97826045 335.13043467a86.98695644 86.98695644 0 0 1-65.54347823 50.47826132l-211.57826044 32.47826046c-4.03043467 0.62608711-6.18260888 7.51304356-2.50434756 11.23043467l152.45217334 155.34782666c21.05217422 20.15217422 30.13043467 49.46086933 25.82608711 79.51304267l-36.27391289 220.108696c-0.9 5.28260888 3.24782578 8.41304356 6.26086934 6.73043467l189.07826132-104.24347823a85.30434756 85.30434756 0 0 1 82.64347822 0.03913067l189.11739112 104.24347821c2.89565244 1.60434756 7.00434756-1.52608711 6.10434755-7.04347821l-36.27391289-220.42173955c-4.26521778-29.23043467 4.69565244-58.30434756 25.39565244-78.45652178l151.00434756-156.13043467z" p-id="2051" fill="#707070"></path></svg>