<?xml version="1.0" standalone="no"?><!DOCTYPE svg PUBLIC "-//W3C//DTD SVG 1.1//EN" "http://www.w3.org/Graphics/SVG/1.1/DTD/svg11.dtd"><svg t="1595668781561" class="icon" viewBox="0 0 1024 1024" version="1.1" xmlns="http://www.w3.org/2000/svg" p-id="5035" xmlns:xlink="http://www.w3.org/1999/xlink" width="16" height="16"><defs><style type="text/css"></style></defs><path d="M928.922574 99.438757l-67.214844 0c-15.159258 0-28.122501 10.878768-30.755468 25.803689l-15.35164 86.96977L222.034932 212.212216c-17.253966 0-31.233352 13.979386-31.233352 31.233352s13.979386 31.233352 31.233352 31.233352l582.540589 0-49.773613 281.97407c-8.103562 37.283138-29.688159 81.4388-86.410022 81.4388l-375.389646 0c-32.819476 0-57.504692-5.947456-76.324316-82.851986-0.11154-0.477884-0.243547-0.945535-0.376577-1.413186l-90.304725-306.293965c-4.89038-16.531512-22.23542-25.986861-38.797631-21.12718-16.541745 4.880147-25.997094 22.245653-21.12718 38.797631l90.101087 305.603233c15.830547 64.286142 44.582381 129.752156 136.829342 129.752156l375.389646 0c74.79959 0 129.97626-49.107441 147.605779-131.348514 0.081864-0.376577 0.152473-0.741897 0.213871-1.118474l71.697949-406.186046 41.014112 0c17.253966 0 31.233352-13.979386 31.233352-31.233352S946.17654 99.438757 928.922574 99.438757z" p-id="5036" fill="#707070"></path><path d="M361.610828 333.028862c-17.253966 0-31.233352 13.979386-31.233352 31.233352l0 30.470989c0 17.253966 13.979386 31.233352 31.233352 31.233352 17.253966 0 31.233352-13.979386 31.233352-31.233352l0-30.470989C392.84418 347.008248 378.86377 333.028862 361.610828 333.028862z" p-id="5037" fill="#707070"></path><path d="M605.376691 333.028862c-17.253966 0-31.233352 13.979386-31.233352 31.233352l0 30.470989c0 17.253966 13.979386 31.233352 31.233352 31.233352 17.253966 0 31.233352-13.979386 31.233352-31.233352l0-30.470989C636.610042 347.008248 622.630656 333.028862 605.376691 333.028862z" p-id="5038" fill="#707070"></path><path d="M560.28982 474.086505c-14.539134-9.292644-33.845853-5.083785-43.149752 9.455349-0.121773 0.193405-13.379729 19.449981-33.968649 19.449981-20.008706 0-32.453133-18.127869-33.287127-19.378349-9.17087-14.407128-28.274974-18.809391-42.824341-9.750061-14.650675 9.099239-19.155269 28.355815-10.044774 43.00649 11.214413 18.047028 41.980113 48.588625 86.156242 48.588625 43.952025 0 75.094302-30.308283 86.572728-48.222281C579.048045 502.717589 574.818721 483.389382 560.28982 474.086505z" p-id="5039" fill="#707070"></path><path d="M296.093649 739.519854c-51.668777 0-93.700055 42.031279-93.700055 93.700055 0 51.668777 42.031279 93.700055 93.700055 93.700055 51.668777 0 93.700055-42.031279 93.700055-93.700055C389.793704 781.550109 347.762425 739.519854 296.093649 739.519854zM296.093649 864.453261c-17.223267 0-31.233352-14.010085-31.233352-31.233352 0-17.223267 14.010085-31.233352 31.233352-31.233352s31.233352 14.010085 31.233352 31.233352C327.327 850.443176 313.316915 864.453261 296.093649 864.453261z" p-id="5040" fill="#707070"></path><path d="M670.89387 739.519854c-51.668777 0-93.700055 42.031279-93.700055 93.700055 0 51.668777 42.031279 93.700055 93.700055 93.700055 51.668777 0 93.700055-42.031279 93.700055-93.700055C764.593925 781.550109 722.56367 739.519854 670.89387 739.519854zM670.89387 864.453261c-17.223267 0-31.233352-14.010085-31.233352-31.233352 0-17.223267 14.010085-31.233352 31.233352-31.233352s31.233352 14.010085 31.233352 31.233352C702.127222 850.443176 688.117137 864.453261 670.89387 864.453261z" p-id="5041" fill="#707070"></path></svg>