<?xml version="1.0" standalone="no"?><!DOCTYPE svg PUBLIC "-//W3C//DTD SVG 1.1//EN" "http://www.w3.org/Graphics/SVG/1.1/DTD/svg11.dtd"><svg t="1595512038359" class="icon" viewBox="0 0 1024 1024" version="1.1" xmlns="http://www.w3.org/2000/svg" p-id="2050" xmlns:xlink="http://www.w3.org/1999/xlink" width="48" height="48"><defs><style type="text/css"></style></defs><path d="M804.949333 830.506667l-120.192-159.573334a294.357333 294.357333 0 0 0 79.488-111.018666c14.933333-36.437333 22.570667-75.178667 22.570667-115.072 0-39.850667-7.594667-78.549333-22.570667-115.029334a295.168 295.168 0 0 0-61.44-93.909333 285.44 285.44 0 0 0-91.136-63.317333A277.632 277.632 0 0 0 500.053333 149.333333c-38.698667 0-76.245333 7.808-111.616 23.253334a285.44 285.44 0 0 0-91.136 63.317333 295.168 295.168 0 0 0-61.44 93.909333A301.482667 301.482667 0 0 0 213.333333 444.842667c0 39.893333 7.594667 78.634667 22.528 115.072a295.168 295.168 0 0 0 61.44 93.952 285.44 285.44 0 0 0 91.136 63.317333c35.413333 15.402667 72.96 23.210667 111.616 23.210667a277.632 277.632 0 0 0 141.269334-38.272l121.898666 161.792c8.96 11.904 25.258667 14.293333 36.394667 5.333333l1.365333-1.066667a27.349333 27.349333 0 0 0 3.968-37.674666z m-304.896-140.032c-131.370667 0-238.250667-110.208-238.250666-245.632 0-135.381333 106.88-245.546667 238.250666-245.546667 131.413333 0 238.293333 110.165333 238.293334 245.546667 0 135.424-106.88 245.632-238.293334 245.632z" p-id="2051" fill="#b7b7b7"></path></svg>